<mxfile host="app.diagrams.net" modified="2023-11-04T01:36:09.830Z" agent="Mozilla/5.0 (Windows NT 10.0; Win64; x64) AppleWebKit/537.36 (KHTML, like Gecko) Chrome/116.0.0.0 Safari/537.36" etag="I8Bv6riP3OoXdgIDlnBd" version="22.0.8" type="github">
  <diagram name="Página-1" id="jRbx-y_SYb3JKoeKnD-2">
    <mxGraphModel dx="1674" dy="1894" grid="1" gridSize="10" guides="1" tooltips="1" connect="1" arrows="1" fold="1" page="1" pageScale="1" pageWidth="827" pageHeight="1169" math="0" shadow="0">
      <root>
        <mxCell id="0" />
        <mxCell id="1" parent="0" />
        <mxCell id="kEzVejWI9Vlg0A2NMhK7-31" value="" style="whiteSpace=wrap;html=1;aspect=fixed;" vertex="1" parent="1">
          <mxGeometry x="250" y="-30" width="450" height="450" as="geometry" />
        </mxCell>
        <mxCell id="kEzVejWI9Vlg0A2NMhK7-1" value="" style="whiteSpace=wrap;html=1;aspect=fixed;" vertex="1" parent="1">
          <mxGeometry x="130" y="790" width="460" height="460" as="geometry" />
        </mxCell>
        <mxCell id="kEzVejWI9Vlg0A2NMhK7-2" value="Cliente" style="shape=umlActor;verticalLabelPosition=bottom;verticalAlign=top;html=1;outlineConnect=0;" vertex="1" parent="1">
          <mxGeometry x="70" y="150" width="30" height="60" as="geometry" />
        </mxCell>
        <mxCell id="kEzVejWI9Vlg0A2NMhK7-4" value="&lt;b&gt;Gestión de seguimiento&lt;/b&gt;" style="text;html=1;strokeColor=none;fillColor=none;align=center;verticalAlign=middle;whiteSpace=wrap;rounded=0;" vertex="1" parent="1">
          <mxGeometry x="370" y="-20" width="150" height="30" as="geometry" />
        </mxCell>
        <mxCell id="kEzVejWI9Vlg0A2NMhK7-7" value="" style="endArrow=none;html=1;rounded=0;exitX=0;exitY=0.5;exitDx=0;exitDy=0;" edge="1" parent="1" source="kEzVejWI9Vlg0A2NMhK7-20" target="kEzVejWI9Vlg0A2NMhK7-2">
          <mxGeometry width="50" height="50" relative="1" as="geometry">
            <mxPoint x="310.18709202348623" y="201.88774478590767" as="sourcePoint" />
            <mxPoint x="80" y="320" as="targetPoint" />
          </mxGeometry>
        </mxCell>
        <mxCell id="kEzVejWI9Vlg0A2NMhK7-9" value="" style="endArrow=none;html=1;rounded=0;exitX=0;exitY=0.5;exitDx=0;exitDy=0;" edge="1" parent="1" source="kEzVejWI9Vlg0A2NMhK7-21" target="kEzVejWI9Vlg0A2NMhK7-2">
          <mxGeometry width="50" height="50" relative="1" as="geometry">
            <mxPoint x="304.27819004855405" y="410.8789614897569" as="sourcePoint" />
            <mxPoint x="110" y="390" as="targetPoint" />
          </mxGeometry>
        </mxCell>
        <mxCell id="kEzVejWI9Vlg0A2NMhK7-20" value="Gestionar Carrito" style="ellipse;whiteSpace=wrap;html=1;" vertex="1" parent="1">
          <mxGeometry x="310" y="230" width="120" height="80" as="geometry" />
        </mxCell>
        <mxCell id="kEzVejWI9Vlg0A2NMhK7-21" value="Pagar Carrito&lt;br&gt;" style="ellipse;whiteSpace=wrap;html=1;" vertex="1" parent="1">
          <mxGeometry x="310" y="320" width="120" height="80" as="geometry" />
        </mxCell>
        <mxCell id="kEzVejWI9Vlg0A2NMhK7-24" value="Navegar Catálogo de Productos" style="ellipse;whiteSpace=wrap;html=1;" vertex="1" parent="1">
          <mxGeometry x="310" y="130" width="120" height="80" as="geometry" />
        </mxCell>
        <mxCell id="kEzVejWI9Vlg0A2NMhK7-25" value="" style="endArrow=none;html=1;rounded=0;exitX=0;exitY=0.5;exitDx=0;exitDy=0;entryX=1;entryY=0.3333333333333333;entryDx=0;entryDy=0;entryPerimeter=0;" edge="1" parent="1" source="kEzVejWI9Vlg0A2NMhK7-24" target="kEzVejWI9Vlg0A2NMhK7-2">
          <mxGeometry width="50" height="50" relative="1" as="geometry">
            <mxPoint x="330" y="290" as="sourcePoint" />
            <mxPoint x="140" y="327" as="targetPoint" />
          </mxGeometry>
        </mxCell>
        <mxCell id="kEzVejWI9Vlg0A2NMhK7-26" value="Registrarse" style="ellipse;whiteSpace=wrap;html=1;" vertex="1" parent="1">
          <mxGeometry x="310" y="20" width="120" height="80" as="geometry" />
        </mxCell>
        <mxCell id="kEzVejWI9Vlg0A2NMhK7-27" value="" style="endArrow=none;html=1;rounded=0;exitX=0;exitY=0.5;exitDx=0;exitDy=0;" edge="1" parent="1" source="kEzVejWI9Vlg0A2NMhK7-26" target="kEzVejWI9Vlg0A2NMhK7-2">
          <mxGeometry width="50" height="50" relative="1" as="geometry">
            <mxPoint x="330" y="200" as="sourcePoint" />
            <mxPoint x="140" y="320" as="targetPoint" />
          </mxGeometry>
        </mxCell>
        <mxCell id="kEzVejWI9Vlg0A2NMhK7-28" value="Consultar Categorías" style="ellipse;whiteSpace=wrap;html=1;" vertex="1" parent="1">
          <mxGeometry x="570" y="130" width="120" height="80" as="geometry" />
        </mxCell>
        <mxCell id="kEzVejWI9Vlg0A2NMhK7-30" value="&amp;lt;&amp;lt;Include&amp;gt;&amp;gt;" style="endArrow=open;endSize=12;dashed=1;html=1;rounded=0;entryX=1;entryY=0.5;entryDx=0;entryDy=0;exitX=0;exitY=0.5;exitDx=0;exitDy=0;" edge="1" parent="1" source="kEzVejWI9Vlg0A2NMhK7-28" target="kEzVejWI9Vlg0A2NMhK7-24">
          <mxGeometry width="160" relative="1" as="geometry">
            <mxPoint x="450" y="290" as="sourcePoint" />
            <mxPoint x="610" y="290" as="targetPoint" />
          </mxGeometry>
        </mxCell>
      </root>
    </mxGraphModel>
  </diagram>
</mxfile>
